<?xml version="1.0" standalone="no"?>
<!DOCTYPE svg PUBLIC "-//W3C//DTD SVG 20010904//EN"
 "http://www.w3.org/TR/2001/REC-SVG-20010904/DTD/svg10.dtd">
<svg version="1.0" xmlns="http://www.w3.org/2000/svg"
 width="671.000000pt" height="137.000000pt" viewBox="0 0 671.000000 137.000000"
 preserveAspectRatio="xMidYMid meet">

<g transform="translate(0.000000,137.000000) scale(0.100000,-0.100000)"
fill="#000000" stroke="none">
<path d="M1542 1197 c-48 -18 -99 -63 -125 -110 -22 -42 -22 -47 -25 -495 l-3
-452 61 0 60 0 0 445 0 445 34 37 c30 33 39 37 92 41 75 5 126 -15 154 -60 19
-32 20 -49 20 -470 l0 -438 60 0 60 0 0 418 c0 344 -3 428 -15 477 -32 123
-109 175 -255 174 -47 0 -100 -6 -118 -12z"/>
<path d="M2292 1199 c-59 -10 -118 -37 -144 -66 -46 -50 -48 -72 -48 -468 0
-416 0 -417 64 -472 55 -49 129 -67 256 -61 137 7 152 14 148 76 -2 34 -7 46
-17 44 -143 -31 -269 -21 -312 24 l-24 26 -3 354 c-3 395 -3 397 64 429 31 14
54 16 133 12 53 -4 109 -9 124 -13 l28 -7 -3 54 c-3 52 -4 53 -38 60 -65 14
-175 18 -228 8z"/>
<path d="M4260 1201 c-76 -23 -130 -69 -161 -136 -17 -36 -19 -72 -19 -396 l0
-355 28 -55 c35 -70 96 -112 187 -129 177 -33 330 37 369 171 23 77 23 661 0
738 -21 72 -83 134 -155 155 -55 17 -204 20 -249 7z m183 -172 c14 -6 30 -22
36 -36 14 -31 15 -611 1 -648 -22 -59 -138 -71 -189 -21 l-26 26 0 321 0 321
28 24 c31 27 106 33 150 13z"/>
<path d="M4981 1198 c-43 -12 -94 -46 -121 -81 -49 -62 -50 -74 -50 -449 0
-351 0 -353 24 -404 45 -97 125 -138 271 -138 119 0 184 23 240 85 62 69 67
105 63 481 -3 327 -3 334 -27 381 -29 59 -81 103 -145 122 -56 17 -202 19
-255 3z m210 -187 l29 -29 0 -307 c0 -348 -1 -356 -69 -376 -51 -15 -102 -5
-132 27 l-24 26 0 320 0 320 28 24 c22 19 39 24 83 24 48 0 60 -4 85 -29z"/>
<path d="M5711 1199 c-62 -19 -117 -65 -145 -121 l-26 -52 0 -443 0 -443 90 0
89 0 3 426 3 426 28 24 c22 19 40 24 80 24 64 0 93 -18 107 -68 6 -23 10 -192
10 -434 l0 -398 90 0 89 0 3 426 3 426 28 24 c22 19 39 24 82 24 43 0 60 -5
82 -24 l28 -24 3 -426 3 -426 89 0 90 0 0 443 0 443 -26 52 c-30 61 -87 105
-158 123 -72 18 -222 7 -273 -19 l-43 -22 -42 22 c-35 18 -62 22 -148 25 -58
1 -120 -2 -139 -8z"/>
<path d="M170 670 l0 -530 173 0 c95 0 190 5 212 11 52 15 119 82 134 134 18
67 14 243 -8 291 -17 37 -55 77 -84 87 -7 2 2 16 22 33 56 47 71 93 71 219 0
95 -3 117 -24 162 -28 59 -76 96 -146 112 -25 6 -114 11 -197 11 l-153 0 0
-530z m357 402 c42 -30 56 -83 51 -188 -7 -136 -41 -164 -203 -164 l-95 0 0
191 0 191 108 -3 c92 -4 112 -7 139 -27z m-12 -466 c51 -22 68 -56 73 -150 5
-96 -8 -153 -44 -187 -24 -22 -35 -24 -145 -27 l-119 -4 0 191 0 191 100 0
c64 0 113 -5 135 -14z"/>
<path d="M870 670 l0 -530 221 0 220 0 -3 48 -3 47 -157 3 -158 3 -2 477 -3
477 -57 3 -58 3 0 -531z"/>
<path d="M2670 1192 c0 -4 47 -120 105 -257 58 -138 105 -257 105 -265 0 -9
-49 -128 -110 -265 -60 -137 -110 -253 -110 -258 0 -4 27 -7 61 -5 l61 3 113
260 c106 244 112 262 101 290 -7 17 -57 137 -111 268 l-98 237 -59 0 c-32 0
-58 -3 -58 -8z"/>
<path d="M3090 670 l0 -530 55 0 55 0 0 530 0 530 -55 0 -55 0 0 -530z"/>
<path d="M3370 670 l0 -530 95 0 95 0 0 201 0 200 37 -3 38 -3 71 -195 70
-195 103 -3 103 -3 -8 23 c-4 13 -40 106 -80 208 -52 129 -70 186 -62 189 7 2
32 22 54 45 52 52 64 102 64 270 0 154 -15 210 -69 259 -62 56 -116 67 -328
67 l-183 0 0 -530z m339 359 c17 -6 36 -19 41 -29 6 -10 10 -73 10 -140 0
-115 -1 -122 -25 -145 -21 -22 -33 -25 -100 -25 l-75 0 0 175 0 175 59 0 c32
0 72 -5 90 -11z"/>
</g>
</svg>
