<?xml version="1.0" standalone="no"?>
<!DOCTYPE svg PUBLIC "-//W3C//DTD SVG 20010904//EN"
 "http://www.w3.org/TR/2001/REC-SVG-20010904/DTD/svg10.dtd">
<svg version="1.0" xmlns="http://www.w3.org/2000/svg"
 width="567.000000pt" height="827.000000pt" viewBox="0 0 567.000000 827.000000"
 preserveAspectRatio="xMidYMid meet">

<g transform="translate(0.000000,827.000000) scale(0.100000,-0.100000)"
fill="#000000" stroke="none">
<path d="M2555 7889 c-115 -17 -162 -47 -316 -199 -130 -128 -232 -251 -275
-332 -20 -40 -60 -96 -88 -124 -55 -55 -119 -129 -124 -143 -2 -5 2 -12 7 -16
6 -3 11 -1 11 6 0 10 3 10 12 1 7 -7 20 -12 30 -12 16 0 16 -3 3 -39 -28 -82
-55 -200 -69 -311 -30 -233 -39 -329 -31 -347 9 -25 13 -136 4 -148 -4 -5 -10
-60 -14 -121 -7 -107 -6 -113 16 -143 19 -26 25 -29 32 -16 4 8 12 15 17 15
19 0 40 -61 40 -115 0 -31 7 -72 15 -92 14 -32 18 -35 45 -29 28 5 30 3 30
-24 0 -29 24 -51 46 -43 21 7 84 -79 205 -279 13 -21 24 -36 26 -34 5 5 -98
183 -148 256 -27 39 -39 68 -39 92 0 40 -15 58 -47 58 -24 0 -30 19 -13 36 11
11 15 77 11 204 -2 60 -7 79 -23 97 -12 12 -24 20 -28 18 -5 -3 -10 2 -14 10
-3 8 -1 17 4 20 6 4 10 19 10 34 0 34 -24 84 -35 73 -5 -4 -6 0 -2 9 3 9 0 22
-6 28 -9 9 -8 14 3 21 12 8 12 10 1 10 -11 0 -11 3 -1 15 14 17 6 18 -25 5
-11 -5 -14 -9 -7 -9 7 -1 10 -6 7 -11 -10 -16 -35 8 -28 26 3 7 9 12 13 9 5
-3 11 -1 15 4 3 6 11 8 19 5 9 -4 13 11 13 60 1 58 -2 67 -29 95 -18 19 -35
28 -45 24 -14 -6 -15 5 -9 100 4 58 13 127 19 154 11 42 15 48 35 45 26 -4 39
10 74 78 13 25 29 50 37 56 8 6 12 20 8 33 -3 11 -2 21 3 21 4 0 13 14 20 30
7 17 22 37 33 45 11 8 21 27 23 42 3 34 48 158 70 191 17 26 13 78 -9 112 -9
15 -6 26 16 57 34 49 305 326 333 341 48 25 113 42 169 43 43 0 54 3 40 9 -11
5 -22 8 -25 8 -3 0 -32 -4 -65 -9z m-610 -689 c-14 -27 -27 -50 -30 -50 -5 0
25 69 38 88 20 26 16 10 -8 -38z m-85 -40 c0 -5 -5 -10 -11 -10 -5 0 -7 5 -4
10 3 6 8 10 11 10 2 0 4 -4 4 -10z m-40 -704 c0 -2 -8 -10 -17 -17 -16 -13
-17 -12 -4 4 13 16 21 21 21 13z m20 -26 c0 -5 -2 -10 -4 -10 -3 0 -8 5 -11
10 -3 6 -1 10 4 10 6 0 11 -4 11 -10z m-55 -91 c-8 -13 24 -51 37 -43 4 3 8 2
7 -3 -3 -20 2 -34 11 -28 6 4 5 -5 -2 -20 -10 -22 -13 -23 -20 -10 -5 8 -13
13 -18 10 -5 -3 -7 3 -5 13 2 10 -1 25 -6 33 -6 9 -8 2 -7 -24 1 -20 -2 -40
-6 -44 -4 -4 -6 19 -5 52 3 60 6 75 15 75 3 0 2 -5 -1 -11z m55 -379 c0 -11
-4 -20 -10 -20 -5 0 -10 9 -10 20 0 11 5 20 10 20 6 0 10 -9 10 -20z"/>
<path d="M1810 6275 c0 -5 5 -17 10 -25 5 -8 10 -10 10 -5 0 6 -5 17 -10 25
-5 8 -10 11 -10 5z"/>
<path d="M2713 7876 c21 -8 56 -26 77 -40 41 -27 42 -30 45 -121 1 -42 15 -95
25 -95 27 0 27 80 0 115 -4 6 -11 24 -14 41 -11 51 -97 115 -153 114 -10 -1
-1 -7 20 -14z"/>
<path d="M2377 7533 c-191 -238 -325 -521 -398 -843 -31 -136 -33 -156 -34
-335 0 -153 4 -204 19 -263 17 -66 30 -91 42 -79 2 2 -3 60 -12 128 -17 132
-15 320 6 474 17 122 67 303 110 400 5 11 22 49 37 85 60 137 136 269 217 377
91 122 102 166 13 56z"/>
<path d="M2847 7553 c-3 -5 -8 -29 -11 -55 -6 -42 -10 -48 -30 -48 -13 0 -29
-7 -37 -16 -15 -19 -63 -44 -83 -44 -8 0 -37 -14 -65 -31 -83 -52 -59 -90 46
-74 37 5 56 16 92 51 24 24 46 43 47 41 5 -5 -34 -137 -44 -150 -5 -7 -18 -40
-30 -74 -17 -52 -92 -173 -92 -149 0 5 9 19 20 33 11 14 17 30 13 36 -3 6 -1
7 5 3 7 -4 10 3 8 21 -2 16 -5 37 -6 48 -1 16 -3 15 -12 -8 -5 -15 -14 -25
-19 -21 -5 3 -8 2 -7 -3 2 -4 -19 -46 -46 -93 -27 -47 -49 -90 -49 -97 0 -7
-7 -15 -15 -18 -8 -3 -12 -12 -8 -20 3 -8 0 -14 -7 -12 -7 1 -12 -9 -12 -23 0
-14 5 -24 11 -23 6 1 11 -5 11 -13 0 -12 -3 -12 -17 1 -28 25 -35 17 -9 -12
17 -20 18 -23 3 -10 -25 21 -38 22 -31 2 4 -8 1 -17 -5 -21 -7 -5 -8 -2 -3 6
5 9 4 11 -4 6 -6 -4 -9 -11 -6 -16 3 -4 -2 -14 -11 -21 -20 -17 -45 -65 -37
-73 4 -3 2 -6 -4 -6 -11 0 -67 -86 -78 -119 -3 -12 -11 -21 -16 -21 -6 0 -7
-5 -4 -10 5 -8 11 -7 21 1 7 6 12 15 9 19 -3 5 -1 11 5 15 6 4 7 11 4 17 -4 7
-2 8 5 4 9 -6 9 -11 0 -22 -6 -8 -8 -14 -4 -14 5 0 1 -8 -8 -17 -8 -10 -17
-22 -19 -28 -2 -5 -7 -9 -12 -7 -5 2 -6 -4 -3 -12 4 -9 3 -18 -2 -20 -12 -8
-10 27 3 43 9 12 7 13 -11 9 -13 -4 -26 -2 -29 3 -9 15 -54 10 -60 -6 -4 -8
-12 -15 -20 -15 -8 0 -14 -10 -14 -24 0 -28 30 -39 66 -26 15 6 24 6 24 0 0
-5 9 -7 21 -5 16 3 18 1 10 -9 -7 -9 -7 -16 0 -23 7 -7 7 -13 1 -17 -6 -3 -13
-2 -17 4 -3 5 -3 10 1 10 3 0 1 7 -6 15 -7 8 -20 15 -28 15 -13 0 -12 -3 4
-15 10 -8 15 -15 10 -15 -5 0 -1 -10 10 -22 l19 -23 -22 19 c-13 10 -20 23
-17 27 3 5 -2 9 -11 9 -11 0 -15 -5 -11 -16 3 -8 2 -13 -2 -11 -4 3 -13 -1
-19 -9 -10 -10 -10 -15 5 -23 10 -7 12 -11 4 -11 -7 0 -10 -5 -6 -12 5 -7 11
-5 21 7 7 11 13 14 13 8 0 -7 -5 -15 -10 -18 -6 -4 -7 -12 -3 -18 3 -7 -3 -4
-14 6 -11 9 -24 14 -28 10 -5 -5 -3 0 4 10 9 11 10 17 2 17 -6 0 -11 -4 -11
-9 0 -5 -16 -26 -36 -47 -49 -54 -116 -189 -83 -169 5 4 9 1 9 -5 0 -6 4 -9 9
-6 10 7 9 25 -2 43 -4 6 -3 15 3 18 6 4 10 3 9 -2 -1 -4 0 -10 1 -13 12 -27 4
-62 -19 -82 -22 -19 -23 -20 -8 -2 17 20 14 34 -6 34 -6 0 -7 -3 -4 -6 3 -4 2
-15 -4 -26 -15 -28 -7 -30 35 -13 30 13 36 19 32 40 -3 14 0 27 5 31 5 3 7 9
4 14 -3 5 0 12 7 16 7 4 10 4 6 -1 -4 -4 -3 -14 4 -22 9 -11 8 -13 -3 -11 -10
2 -13 -5 -11 -22 2 -14 7 -88 11 -165 5 -88 13 -151 22 -167 8 -15 42 -60 75
-102 73 -88 118 -177 111 -215 -18 -86 -18 -89 -3 -51 8 19 15 49 15 66 1 46
-60 159 -126 233 -65 73 -72 96 -73 252 0 100 2 111 31 170 36 71 76 129 91
129 6 0 19 -11 29 -24 10 -13 28 -26 39 -29 22 -6 20 -1 -17 49 -13 17 -23 34
-23 37 0 3 22 40 49 82 l48 76 7 -47 c3 -26 6 -64 6 -85 0 -21 4 -40 9 -43 15
-10 22 79 11 147 -11 73 -17 55 65 195 6 10 32 56 59 102 27 47 58 100 68 117
l19 33 32 -17 c18 -9 38 -16 45 -14 8 1 20 -3 27 -9 10 -9 19 -8 37 4 22 14
25 14 41 -4 9 -11 29 -20 46 -20 l28 0 -1 113 c-2 102 -5 117 -30 167 -16 30
-44 74 -64 98 -31 37 -33 45 -24 70 16 39 42 145 56 230 12 68 13 82 3 65z
m-45 -380 c26 -29 76 -134 86 -181 10 -41 3 -60 -18 -47 -5 3 -10 -3 -10 -14
0 -28 -18 -36 -39 -17 -23 21 -44 20 -65 -3 -17 -18 -17 -20 4 -41 30 -30 19
-35 -27 -11 -66 33 -66 36 -33 141 36 109 70 190 80 190 4 0 14 -8 22 -17z
m-131 -76 c-10 -9 -11 -8 -5 6 3 10 9 15 12 12 3 -3 0 -11 -7 -18z m-15 -32
c1 -7 -6 -21 -16 -30 -10 -9 -17 -22 -14 -28 2 -7 0 -19 -6 -27 -8 -12 -11
-13 -22 -2 -11 11 -10 13 1 10 7 -2 16 3 19 11 3 9 0 11 -9 6 -8 -5 -3 4 10
18 14 15 21 27 17 27 -5 0 -3 6 3 13 6 8 9 17 6 20 -3 4 -2 5 2 2 4 -3 8 -12
9 -20z m-21 -115 c3 -5 1 -10 -4 -10 -6 0 -11 5 -11 10 0 6 2 10 4 10 3 0 8
-4 11 -10z m-29 -36 c-1 -13 -5 -26 -8 -29 -4 -4 -5 1 -4 12 2 10 0 23 -5 29
-5 6 -4 11 5 11 7 0 12 -10 12 -23z m-30 -10 c1 -9 0 -13 -4 -10 -3 4 -7 14
-8 22 -1 9 0 13 4 10 3 -4 7 -14 8 -22z m-26 -38 c-5 -13 -6 -27 -2 -32 4 -4
1 -4 -6 0 -7 4 -11 10 -9 14 2 4 7 15 10 25 4 9 9 17 11 17 3 0 1 -11 -4 -24z
m40 -11 c-7 -8 -17 -15 -23 -15 -6 0 -2 7 9 15 25 19 30 19 14 0z m-30 -69 c0
-2 -7 -7 -16 -10 -8 -3 -12 -2 -9 4 6 10 25 14 25 6z m-82 -35 c-13 -15 -25
-27 -27 -25 -4 4 39 54 47 54 2 0 -7 -13 -20 -29z m42 15 c0 -2 -8 -10 -17
-17 -16 -13 -17 -12 -4 4 13 16 21 21 21 13z m-9 -42 c-11 -15 -18 -31 -14
-37 3 -6 1 -7 -6 -3 -12 8 -8 19 17 49 24 27 26 20 3 -9z m-39 -16 c-9 -9 -9
-15 1 -27 10 -12 9 -13 -2 -6 -11 6 -13 4 -8 -9 4 -11 3 -15 -4 -11 -6 4 -8
13 -5 20 2 7 -1 18 -7 25 -9 10 -9 11 1 6 7 -4 15 -1 18 9 4 9 9 13 12 10 3
-3 0 -11 -6 -17z m-32 -22 c0 -3 -5 -17 -12 -33 -6 -15 -10 -32 -9 -38 1 -5
-3 -4 -10 2 -7 7 -14 20 -15 28 -2 13 1 14 12 4 11 -9 14 -8 15 7 1 11 1 22 0
27 0 4 4 7 9 7 6 0 10 -2 10 -4z m6 -61 c-1 -8 -5 -17 -8 -21 -5 -4 -4 16 1
34 3 9 9 -1 7 -13z m-65 -24 c-6 -10 -7 -22 -3 -26 4 -5 1 -5 -6 -1 -9 5 -9
12 -2 27 6 10 13 19 16 19 2 0 0 -8 -5 -19z m50 -18 c13 -16 12 -17 -3 -4 -10
7 -18 15 -18 17 0 8 8 3 21 -13z m-58 -38 c-3 -9 -8 -14 -10 -11 -3 3 -2 9 2
15 9 16 15 13 8 -4z m18 -8 c-10 -9 -11 -8 -5 6 3 10 9 15 12 12 3 -3 0 -11
-7 -18z m-16 -26 c-9 -8 -36 -10 -30 -2 2 4 11 8 20 8 8 0 13 -3 10 -6z m-5
-27 c0 -8 -19 -13 -24 -6 -3 5 1 9 9 9 8 0 15 -2 15 -3z m-17 -37 c-5 -8 -8
-7 -11 1 -2 7 -8 9 -13 6 -6 -3 -5 -11 2 -20 10 -12 10 -15 -2 -12 -8 2 -13
-3 -11 -10 1 -8 -2 -11 -8 -7 -8 5 -7 11 1 21 6 8 8 14 4 14 -4 0 -2 6 5 14
13 17 44 10 33 -7z m-137 -152 c16 -8 22 -15 14 -15 -8 1 -24 7 -34 15 -25 19
-16 19 20 0z m-32 -55 c10 -13 9 -13 -6 -1 -10 7 -18 21 -17 30 0 13 1 14 6 1
3 -8 11 -22 17 -30z m-37 23 c-4 -3 1 -15 10 -26 10 -11 12 -17 6 -13 -7 4
-13 2 -13 -3 0 -6 6 -11 13 -12 8 0 8 -2 1 -5 -7 -3 -11 -13 -9 -22 1 -9 0
-11 -2 -4 -3 7 -10 9 -16 6 -7 -4 -9 -4 -5 1 4 4 2 15 -4 23 -15 17 -20 44 -7
36 5 -3 7 -9 4 -14 -3 -5 -1 -11 4 -14 5 -3 11 1 15 9 3 8 1 17 -5 20 -9 6 -3
25 8 25 4 0 3 -3 0 -7z m-31 -78 c1 -8 -3 -18 -8 -22 -6 -3 -8 -1 -4 5 3 6 2
13 -4 17 -6 4 -8 11 -4 16 7 12 17 4 20 -16z"/>
<path d="M2970 7490 c0 -5 5 -10 10 -10 6 0 10 5 10 10 0 6 -4 10 -10 10 -5 0
-10 -4 -10 -10z"/>
<path d="M2609 7454 c-13 -16 -12 -19 34 -45 36 -21 49 9 17 41 -24 24 -33 25
-51 4z"/>
<path d="M2660 7260 c-7 -4 -9 -13 -6 -19 10 -16 46 -14 46 3 0 17 -23 27 -40
16z"/>
<path d="M2295 7141 c3 -10 1 -30 -6 -43 -14 -33 2 -94 36 -130 32 -35 89 -38
129 -7 57 45 18 150 -62 166 -20 4 -40 6 -44 5 -3 -1 -12 5 -18 13 -18 22 -43
19 -35 -4z"/>
<path d="M3938 7063 c7 -3 16 -2 19 1 4 3 -2 6 -13 5 -11 0 -14 -3 -6 -6z"/>
<path d="M2198 6968 c-32 -26 -31 -54 4 -83 25 -21 38 -25 62 -21 39 8 38 8
30 51 -5 30 -13 40 -40 51 -40 17 -37 17 -56 2z"/>
<path d="M3295 6445 c-49 -17 -113 -63 -120 -87 -4 -10 -25 -30 -47 -44 -22
-14 -38 -28 -35 -31 8 -8 58 29 107 79 60 62 152 87 207 55 107 -61 138 -77
150 -77 7 0 13 -6 13 -13 0 -16 37 -51 62 -60 10 -3 20 -19 24 -34 8 -31 55
-155 84 -219 10 -22 44 -115 75 -208 57 -168 84 -284 85 -364 0 -37 -4 -44
-27 -54 -51 -22 -138 -80 -185 -124 -26 -24 -53 -44 -60 -43 -10 0 -10 2 0 6
6 2 12 11 12 19 0 10 -6 11 -25 4 -20 -8 -27 -6 -31 5 -4 8 -14 15 -24 15 -11
0 -21 4 -24 9 -4 5 -15 76 -27 158 -30 219 -36 253 -38 218 0 -16 4 -58 9 -91
15 -93 16 -237 2 -242 -7 -2 -12 -17 -12 -33 0 -19 -5 -29 -15 -29 -8 0 -15
-5 -15 -11 0 -6 -9 -8 -20 -4 -11 4 -20 2 -20 -4 0 -20 -30 -11 -41 12 -6 13
-19 29 -30 35 -17 11 -16 7 6 -28 32 -50 32 -64 1 -56 -20 5 -23 3 -18 -19 2
-14 -1 -31 -7 -38 -8 -11 -5 -13 19 -9 41 6 41 -23 0 -46 -18 -10 -30 -25 -30
-38 0 -12 -9 -33 -21 -48 -11 -14 -17 -30 -14 -36 3 -5 1 -10 -4 -10 -6 0 -11
5 -11 11 0 6 -7 8 -17 5 -34 -13 -45 52 -18 104 14 26 14 30 1 30 -9 0 -20
-17 -27 -42 -11 -42 -10 -48 16 -111 7 -16 4 -18 -21 -15 -26 3 -30 8 -34 43
-3 27 -7 35 -12 23 -4 -9 -4 -25 -1 -36 4 -15 -11 -38 -55 -85 -64 -69 -139
-174 -130 -183 3 -3 16 10 29 28 48 69 131 158 149 158 10 0 21 -8 23 -17 3
-13 5 -12 6 5 1 27 60 57 92 47 11 -4 26 0 35 10 9 9 24 15 33 13 13 -3 17
-23 22 -113 4 -61 10 -118 14 -127 9 -23 41 -23 53 -1 9 15 12 14 40 -6 25
-18 30 -27 26 -49 -4 -23 3 -34 46 -70 41 -36 53 -42 65 -32 8 7 15 21 15 31
0 10 4 21 10 24 17 11 53 -39 105 -144 27 -56 53 -101 58 -101 12 0 1 33 -39
119 -48 102 -45 113 16 61 19 -16 39 -30 43 -30 21 0 39 -35 52 -102 37 -189
102 -342 164 -384 l36 -24 -46 6 c-33 5 -60 1 -93 -11 -25 -10 -52 -15 -60
-12 -9 4 -16 -2 -20 -16 -3 -13 -18 -35 -35 -51 -28 -27 -30 -27 -55 -11 -32
21 -137 138 -206 230 -50 67 -130 215 -130 241 0 7 -25 34 -56 61 -67 57 -115
121 -144 188 -16 39 -20 43 -16 19 8 -51 72 -149 135 -206 43 -39 65 -68 79
-106 44 -116 157 -276 280 -399 40 -40 55 -62 73 -106 6 -16 23 -33 36 -38 14
-5 27 -19 30 -30 5 -17 11 -20 38 -15 l32 6 48 -105 c45 -97 47 -107 35 -132
-18 -37 -27 -124 -14 -144 7 -11 56 0 66 15 4 6 5 19 2 28 -3 10 3 21 15 27
17 9 29 1 94 -62 40 -41 88 -79 105 -85 40 -14 41 -7 2 13 -36 19 -100 74
-100 86 0 16 29 9 77 -19 27 -16 55 -26 63 -23 57 23 82 71 38 71 -13 0 -32 7
-42 15 -26 20 -52 19 -61 -2 -6 -16 -8 -16 -23 3 -9 12 -25 24 -35 28 -14 4
-17 12 -12 28 8 25 8 25 6 50 -1 22 -38 43 -54 30 -22 -18 -73 -2 -91 29 -9
16 -24 29 -32 29 -13 0 -74 116 -74 141 0 15 47 10 64 -6 8 -9 21 -14 28 -13
7 2 14 -8 16 -22 5 -35 16 -44 46 -36 19 5 26 13 26 31 0 20 5 25 24 25 13 0
45 9 71 20 41 17 46 23 41 43 -3 12 -6 33 -6 46 0 14 -16 38 -42 63 -48 45
-47 45 62 14 30 -9 66 -16 80 -15 14 0 -13 10 -60 23 -122 33 -244 96 -273
144 -35 55 -73 155 -96 255 -31 129 -30 131 22 122 73 -13 209 -12 251 2 58
19 119 46 132 58 6 5 26 21 45 34 82 56 153 179 170 294 13 86 1 206 -26 257
-9 17 -14 31 -13 32 1 2 -12 23 -29 48 -48 71 -124 135 -201 171 -74 35 -88
56 -33 51 42 -4 83 22 79 50 -5 33 -31 44 -65 28 -15 -7 -45 -12 -65 -11 -24
2 -44 -3 -54 -13 -11 -11 -34 -16 -76 -16 -79 0 -67 -12 19 -19 38 -3 68 -11
70 -18 3 -8 -20 -12 -82 -11 -96 0 -105 6 -105 75 0 56 -57 291 -86 360 -8 17
-14 36 -14 43 0 7 -6 26 -14 43 -47 109 -81 194 -81 203 0 6 -6 18 -13 27 -7
8 -21 42 -30 75 -20 70 -70 132 -107 132 -13 0 -31 8 -41 17 -9 10 -22 18 -28
18 -6 0 -31 11 -56 24 -61 33 -110 41 -155 26z m768 -2689 c3 -12 -30 -32 -39
-24 -11 12 5 40 21 36 9 -2 17 -7 18 -12z m50 -230 c3 -8 -3 -22 -14 -32 -18
-16 -21 -16 -36 -1 -13 13 -14 19 -3 31 16 20 46 21 53 2z m1 -55 c3 -5 -1
-14 -8 -20 -16 -13 -32 2 -21 19 8 12 22 13 29 1z m-142 -53 c-7 -7 -12 -8
-12 -2 0 6 3 14 7 17 3 4 9 5 12 2 2 -3 -1 -11 -7 -17z"/>
<path d="M3500 6284 c0 -8 5 -12 10 -9 6 4 8 11 5 16 -9 14 -15 11 -15 -7z"/>
<path d="M3153 6250 c-8 -22 -20 -32 -41 -36 -22 -5 -31 -13 -35 -33 -21 -100
-26 -133 -30 -183 -2 -31 0 -55 5 -52 4 3 8 27 8 53 0 27 7 80 16 119 15 69
17 71 43 66 34 -7 84 36 79 69 -5 34 -32 32 -45 -3z"/>
<path d="M3520 6230 c0 -5 5 -10 10 -10 6 0 10 5 10 10 0 6 -4 10 -10 10 -5 0
-10 -4 -10 -10z"/>
<path d="M3377 6206 c-21 -8 -46 -21 -56 -30 -13 -12 -20 -13 -29 -4 -9 9 -12
6 -12 -15 0 -32 23 -36 59 -10 54 37 198 0 254 -66 15 -18 27 -36 27 -41 0 -5
5 -21 10 -36 10 -26 11 -26 30 -9 48 44 10 118 -97 193 -41 28 -133 37 -186
18z"/>
<path d="M3321 6014 c0 -11 3 -14 6 -6 3 7 2 16 -1 19 -3 4 -6 -2 -5 -13z"/>
<path d="M3691 5962 c-11 -21 -15 -53 -12 -102 l3 -35 12 35 c9 23 19 34 30
34 15 -2 16 0 2 15 -9 10 -12 27 -9 44 6 31 -11 37 -26 9z"/>
<path d="M3420 5891 c0 -11 5 -23 10 -26 6 -4 10 5 10 19 0 14 -4 26 -10 26
-5 0 -10 -9 -10 -19z"/>
<path d="M3040 5870 c0 -5 5 -10 11 -10 5 0 7 5 4 10 -3 6 -8 10 -11 10 -2 0
-4 -4 -4 -10z"/>
<path d="M3051 5783 c0 -31 -6 -53 -13 -56 -8 -3 -6 -6 5 -6 9 -1 17 -8 17
-18 0 -9 2 -14 4 -12 3 2 1 36 -3 74 -8 68 -8 69 -10 18z"/>
<path d="M3890 5750 c0 -5 8 -10 18 -10 20 0 56 -18 192 -94 112 -64 150 -94
150 -120 1 -19 2 -19 11 -4 8 14 2 25 -32 55 -22 21 -68 55 -102 75 -34 20
-78 46 -97 58 -62 39 -140 61 -140 40z"/>
<path d="M3462 5720 c0 -19 2 -27 5 -17 2 9 2 25 0 35 -3 9 -5 1 -5 -18z"/>
<path d="M2965 5690 c-3 -6 1 -7 9 -4 18 7 21 14 7 14 -6 0 -13 -4 -16 -10z"/>
<path d="M2890 5657 c-54 -26 -132 -78 -126 -84 2 -2 19 5 37 16 19 12 40 21
47 21 11 0 62 32 97 62 17 15 -9 8 -55 -15z"/>
<path d="M3077 5620 c12 -104 23 -94 -112 -100 -86 -4 -129 -11 -152 -23 -46
-24 -41 -27 14 -11 28 9 92 14 165 14 l119 0 -7 53 c-4 28 -13 68 -20 87 -14
34 -14 34 -7 -20z"/>
<path d="M3113 5335 c0 -22 2 -30 4 -17 2 12 2 30 0 40 -3 9 -5 -1 -4 -23z"/>
<path d="M2200 5293 c11 -24 22 -43 24 -43 9 0 -6 37 -25 60 -19 24 -19 24 1
-17z"/>
<path d="M2256 5267 c-30 -39 -32 -59 -11 -77 8 -7 15 -27 15 -46 0 -18 5 -36
11 -39 6 -4 8 -14 5 -22 -8 -19 33 -93 51 -93 72 0 124 158 73 223 -11 14 -20
30 -20 36 0 6 -7 11 -15 11 -8 0 -15 7 -15 16 0 11 -6 13 -19 9 -11 -3 -22 -1
-26 5 -11 17 -23 11 -49 -23z"/>
<path d="M2120 5260 c11 -20 30 -28 30 -12 0 11 -22 32 -32 32 -5 0 -4 -9 2
-20z"/>
<path d="M3111 5264 c0 -11 3 -14 6 -6 3 7 2 16 -1 19 -3 4 -6 -2 -5 -13z"/>
<path d="M1900 5180 c0 -5 5 -10 10 -10 6 0 10 5 10 10 0 6 -4 10 -10 10 -5 0
-10 -4 -10 -10z"/>
<path d="M3123 5155 c0 -22 2 -30 4 -17 2 12 2 30 0 40 -3 9 -5 -1 -4 -23z"/>
<path d="M2232 5083 c5 -25 28 -28 28 -4 0 12 -6 21 -16 21 -9 0 -14 -7 -12
-17z"/>
<path d="M3045 4940 c-3 -5 -1 -10 4 -10 6 0 11 5 11 10 0 6 -2 10 -4 10 -3 0
-8 -4 -11 -10z"/>
<path d="M3060 4729 c-36 -27 -76 -61 -90 -75 l-25 -26 30 15 c27 14 167 136
155 136 -3 0 -34 -22 -70 -50z"/>
<path d="M3171 4694 c0 -11 3 -14 6 -6 3 7 2 16 -1 19 -3 4 -6 -2 -5 -13z"/>
<path d="M3557 4484 c-8 -8 1 -24 14 -24 5 0 9 7 9 15 0 15 -12 20 -23 9z"/>
<path d="M3800 4019 c0 -5 5 -7 10 -4 6 3 10 8 10 11 0 2 -4 4 -10 4 -5 0 -10
-5 -10 -11z"/>
<path d="M3034 3940 c22 -11 41 -18 44 -16 5 6 -54 36 -70 36 -7 -1 5 -10 26
-20z"/>
<path d="M4405 3900 c11 -5 27 -9 35 -9 9 0 8 4 -5 9 -11 5 -27 9 -35 9 -9 0
-8 -4 5 -9z"/>
<path d="M4480 3881 c41 -13 97 -22 80 -12 -8 5 -35 11 -60 15 -30 4 -36 3
-20 -3z"/>
<path d="M3213 3844 c15 -8 27 -19 27 -24 0 -13 107 -145 171 -211 95 -99 190
-219 297 -374 41 -60 96 -139 122 -175 62 -86 145 -243 132 -248 -8 -2 -8 -11
-1 -29 5 -14 7 -33 4 -42 -3 -9 5 -31 18 -49 13 -17 32 -51 41 -74 10 -24 27
-63 38 -88 37 -83 106 -315 96 -325 -3 -3 -21 2 -41 10 -44 18 -80 8 -100 -30
-12 -23 -15 -25 -26 -11 -7 9 -14 29 -16 46 -1 16 -7 35 -12 42 -6 7 -18 35
-27 62 -43 126 -192 443 -203 432 -2 -2 13 -39 35 -82 120 -239 294 -761 280
-842 -2 -10 2 -25 8 -33 20 -26 67 -336 52 -345 -4 -3 -1 -15 7 -27 8 -12 15
-32 15 -44 0 -13 5 -23 11 -23 13 0 6 117 -12 225 -14 83 -98 453 -112 492
-14 40 -5 50 25 29 34 -24 73 -20 97 11 25 31 31 27 42 -29 12 -64 11 -142 -3
-157 -11 -10 -10 -11 3 -6 14 5 17 -10 22 -121 3 -70 4 -131 1 -136 -3 -4 -14
-3 -26 3 -16 9 -19 8 -16 -3 3 -7 15 -14 27 -16 23 -4 23 -5 17 -115 -10 -176
-12 -474 -3 -483 4 -4 10 -5 13 -1 9 9 34 346 41 552 6 213 -7 417 -37 574
-11 58 -18 106 -16 108 2 2 15 -1 30 -7 36 -13 56 -13 56 2 0 6 -3 8 -6 5 -12
-12 -104 47 -111 71 -9 35 0 35 48 -2 24 -19 45 -33 48 -30 7 6 -39 53 -75 75
-23 14 -37 35 -53 78 -12 32 -18 66 -15 75 3 9 1 16 -6 16 -11 0 -90 156 -90
178 0 5 -16 36 -35 68 -19 32 -35 62 -35 67 0 5 -15 35 -34 66 -50 82 -51 81
31 85 40 3 77 7 83 11 5 3 10 22 10 41 0 24 -4 34 -16 34 -9 0 -41 23 -72 50
-60 54 -141 97 -232 123 -51 15 -59 22 -119 102 -34 47 -119 146 -187 221 -69
75 -138 156 -155 180 -28 41 -56 65 -76 64 -4 -1 4 -8 20 -16z m583 -595 c83
-37 184 -97 184 -109 0 -5 -16 -14 -35 -20 -19 -6 -35 -15 -35 -19 0 -4 -11
-13 -24 -19 -20 -9 -27 -7 -44 11 -26 29 -132 174 -132 181 0 11 18 6 86 -25z
m269 -1109 c3 -5 1 -10 -4 -10 -6 0 -11 5 -11 10 0 6 2 10 4 10 3 0 8 -4 11
-10z"/>
<path d="M4755 3790 c3 -5 8 -10 11 -10 2 0 4 5 4 10 0 6 -5 10 -11 10 -5 0
-7 -4 -4 -10z"/>
<path d="M2832 3713 c2 -10 -2 -17 -8 -16 -6 1 -9 -8 -7 -20 6 -29 40 -33 48
-6 4 10 3 28 0 39 -8 25 -37 27 -33 3z"/>
<path d="M4150 3675 c-7 -9 -11 -18 -8 -21 9 -9 59 16 53 26 -9 15 -31 12 -45
-5z"/>
<path d="M3708 3629 c-22 -24 -25 -31 -13 -36 9 -3 29 0 46 7 22 9 29 18 27
34 -4 30 -29 28 -60 -5z"/>
<path d="M4460 3565 c0 -8 4 -15 10 -15 5 0 7 7 4 15 -4 8 -8 15 -10 15 -2 0
-4 -7 -4 -15z"/>
<path d="M2833 3490 c0 -25 2 -35 4 -22 2 12 2 32 0 45 -2 12 -4 2 -4 -23z"/>
<path d="M3055 3520 c-3 -5 -1 -10 4 -10 6 0 11 5 11 10 0 6 -2 10 -4 10 -3 0
-8 -4 -11 -10z"/>
<path d="M4470 3509 c-13 -23 -5 -76 15 -99 30 -36 27 -56 -15 -94 -22 -20
-40 -44 -40 -53 0 -13 4 -11 13 7 7 14 23 26 35 28 13 2 26 11 29 20 4 9 20
32 36 51 36 42 32 80 -15 128 -37 39 -44 40 -58 12z"/>
<path d="M2840 3411 c0 -28 37 -137 66 -192 14 -28 13 -31 -25 -86 -32 -47
-71 -151 -71 -188 0 -4 16 24 36 62 39 74 76 133 84 133 3 0 16 -23 30 -51 13
-28 30 -57 37 -65 25 -24 114 -177 116 -198 1 -11 7 -25 14 -31 7 -5 33 -50
58 -100 60 -118 68 -132 92 -158 29 -31 123 -176 123 -189 0 -6 6 -16 14 -22
8 -6 34 -49 59 -96 67 -128 81 -154 93 -165 19 -17 44 -59 44 -72 0 -9 -14
-13 -41 -13 -36 0 -100 -26 -98 -40 0 -3 8 -18 18 -35 15 -25 25 -30 62 -33
35 -2 49 2 64 18 32 35 50 25 99 -57 25 -43 46 -83 46 -91 0 -12 7 -23 59
-100 12 -18 42 -75 66 -127 24 -52 77 -152 117 -222 69 -120 73 -130 76 -198
5 -86 -18 -183 -54 -239 -14 -21 -57 -76 -95 -123 -68 -83 -99 -131 -99 -153
0 -6 11 -15 25 -20 38 -14 40 -36 12 -93 -50 -100 -54 -186 -13 -266 15 -28
63 -77 70 -70 2 2 22 43 45 90 34 70 42 100 46 159 4 65 9 81 59 168 30 54 58
106 61 117 4 11 -10 -9 -29 -45 -20 -36 -45 -76 -55 -90 -19 -24 -20 -24 -40
-6 -12 11 -21 24 -21 30 1 16 31 49 62 70 47 31 90 146 54 146 -8 0 -42 -9
-75 -19 -34 -10 -61 -16 -61 -13 0 3 16 24 35 48 94 114 129 291 81 406 -8 18
-45 85 -83 148 -74 125 -141 270 -168 365 -9 33 -34 95 -56 137 -21 42 -36 79
-31 81 4 2 20 7 35 11 38 9 24 26 -22 26 -41 0 -54 10 -66 50 -7 24 -102 152
-240 325 -132 166 -239 331 -322 497 -46 91 -83 174 -83 183 0 9 -16 45 -35
81 -19 35 -35 73 -35 84 0 11 -9 24 -21 30 -12 7 -18 18 -15 26 3 7 1 13 -3
11 -5 -1 -10 3 -11 8 -1 6 -9 19 -16 30 -8 11 -14 29 -14 40 0 11 -7 29 -15
39 -8 11 -15 30 -15 42 0 12 -7 24 -15 28 -11 4 -15 -2 -15 -23z m1055 -2794
c-14 -35 -35 -50 -35 -26 0 13 41 72 46 66 2 -2 -3 -20 -11 -40z"/>
<path d="M3330 3339 c7 -11 14 -19 16 -16 7 7 -7 37 -17 37 -6 0 -5 -9 1 -21z"/>
<path d="M3468 3344 c-6 -9 51 -118 58 -111 2 1 -2 19 -7 38 -13 42 -44 85
-51 73z"/>
<path d="M3060 3324 c0 -8 5 -12 10 -9 6 4 8 11 5 16 -9 14 -15 11 -15 -7z"/>
<path d="M4338 3314 c-5 -4 -8 -18 -8 -31 0 -12 -5 -23 -12 -23 -24 0 8 -17
55 -30 30 -8 52 -9 58 -3 5 5 -4 9 -26 9 -42 0 -47 4 -54 50 -3 20 -9 32 -13
28z"/>
<path d="M3015 3142 c-8 -22 14 -42 45 -42 30 0 34 16 11 43 -15 19 -48 18
-56 -1z"/>
<path d="M3550 3140 c0 -5 6 -10 14 -10 8 0 18 5 21 10 3 6 -3 10 -14 10 -12
0 -21 -4 -21 -10z"/>
<path d="M3610 3140 c20 -13 43 -13 35 0 -3 6 -16 10 -28 10 -18 0 -19 -2 -7
-10z"/>
<path d="M3275 3111 c-7 -31 17 -91 36 -91 6 0 8 -9 4 -20 -5 -16 -2 -20 17
-20 22 0 24 4 23 60 0 47 -4 61 -17 65 -9 3 -19 12 -22 20 -9 25 -34 16 -41
-14z"/>
<path d="M3535 3078 c15 -26 32 -51 38 -55 12 -8 -29 64 -50 87 -8 8 -2 -6 12
-32z"/>
<path d="M3400 3096 c0 -8 7 -16 15 -20 10 -4 15 1 15 14 0 11 -7 20 -15 20
-8 0 -15 -6 -15 -14z"/>
<path d="M3660 3085 c-10 -12 -9 -16 3 -21 20 -7 37 3 37 22 0 18 -24 18 -40
-1z"/>
<path d="M3742 3068 c5 -15 28 -18 29 -3 0 6 -7 12 -17 13 -10 3 -15 -1 -12
-10z"/>
<path d="M3800 3036 c0 -9 7 -16 16 -16 17 0 14 22 -4 28 -7 2 -12 -3 -12 -12z"/>
<path d="M3650 3026 c0 -2 7 -6 15 -10 8 -3 15 -1 15 4 0 6 -7 10 -15 10 -8 0
-15 -2 -15 -4z"/>
<path d="M3727 3009 c-9 -6 -17 -14 -17 -19 0 -16 30 -11 37 5 8 21 1 25 -20
14z"/>
<path d="M3754 2945 c-4 -8 -3 -23 2 -32 4 -10 6 -22 5 -26 -1 -5 4 -7 11 -5
14 5 27 46 20 66 -6 17 -31 15 -38 -3z"/>
<path d="M3412 2918 c-16 -16 -15 -38 2 -38 15 0 29 37 17 45 -4 2 -13 -1 -19
-7z"/>
<path d="M3525 2910 c-13 -15 -15 -24 -8 -31 15 -15 55 7 51 28 -5 25 -22 26
-43 3z"/>
<path d="M3208 2879 c-57 -42 -18 -135 53 -127 19 2 35 -6 57 -30 20 -22 39
-32 59 -32 45 0 57 13 49 52 -9 48 -67 98 -113 98 -11 0 -29 14 -41 30 -27 35
-29 36 -64 9z"/>
<path d="M3680 2846 c0 -11 30 -66 36 -66 2 0 -3 15 -12 33 -19 36 -24 44 -24
33z"/>
<path d="M3880 2840 c0 -12 29 -45 30 -33 0 6 3 18 6 27 4 11 0 14 -15 13 -12
-1 -21 -4 -21 -7z"/>
<path d="M3500 2830 c-12 -7 -12 -12 -2 -22 9 -9 15 -9 24 0 16 16 -2 34 -22
22z"/>
<path d="M3752 2828 c6 -18 28 -21 28 -4 0 9 -7 16 -16 16 -9 0 -14 -5 -12
-12z"/>
<path d="M2760 2789 c-20 -28 -29 -52 -28 -75 1 -19 -6 -42 -15 -52 -19 -21
-23 -67 -6 -77 5 -4 14 -18 19 -31 20 -52 102 -17 108 46 5 44 9 48 28 29 12
-12 13 -21 4 -44 -11 -29 -2 -44 28 -45 7 0 17 -11 22 -25 12 -32 47 -34 52
-2 2 15 11 23 30 25 19 2 31 13 42 37 9 19 21 37 25 40 5 3 8 26 6 52 -2 28 3
60 12 79 15 31 13 64 -4 64 -4 0 -16 -14 -25 -30 -12 -21 -25 -30 -42 -30 -14
0 -41 -13 -59 -30 -19 -16 -37 -30 -40 -30 -3 0 -14 15 -25 34 -12 21 -30 36
-44 38 -16 2 -24 10 -26 30 -5 43 -29 42 -62 -3z"/>
<path d="M3466 2791 c-4 -7 -5 -15 -2 -18 9 -9 19 4 14 18 -4 11 -6 11 -12 0z"/>
<path d="M3807 2783 c-20 -19 10 -63 44 -63 22 0 27 38 7 58 -13 13 -41 16
-51 5z"/>
<path d="M3645 2740 c3 -5 11 -10 16 -10 6 0 7 5 4 10 -3 6 -11 10 -16 10 -6
0 -7 -4 -4 -10z"/>
<path d="M3130 2656 c0 -9 5 -16 10 -16 6 0 10 4 10 9 0 6 -4 13 -10 16 -5 3
-10 -1 -10 -9z"/>
<path d="M3627 2653 c-11 -10 -8 -43 3 -43 6 0 10 11 10 25 0 26 -2 29 -13 18z"/>
<path d="M3933 2613 c10 -58 58 -84 65 -35 2 14 -7 31 -24 47 -38 35 -48 32
-41 -12z"/>
<path d="M3890 2592 c0 -29 11 -53 21 -46 14 8 11 40 -6 54 -12 10 -15 9 -15
-8z"/>
<path d="M3470 2569 c0 -12 -8 -28 -17 -35 -16 -12 -16 -15 -3 -24 41 -27 69
7 47 55 -15 31 -27 32 -27 4z"/>
<path d="M3610 2559 c0 -11 5 -17 10 -14 6 3 10 13 10 21 0 8 -4 14 -10 14 -5
0 -10 -9 -10 -21z"/>
<path d="M3933 2484 c-10 -27 14 -40 37 -19 11 10 17 22 14 26 -9 15 -44 10
-51 -7z"/>
<path d="M4020 2486 c-15 -19 -5 -36 21 -36 22 0 25 22 5 39 -10 9 -16 8 -26
-3z"/>
<path d="M3950 2411 c0 -14 18 -23 31 -15 8 4 7 9 -2 15 -18 11 -29 11 -29 0z"/>
<path d="M3718 2378 c-8 -7 -18 -21 -21 -30 -9 -25 29 -24 43 1 20 38 9 53
-22 29z"/>
<path d="M3610 2359 c0 -5 5 -7 10 -4 6 3 10 8 10 11 0 2 -4 4 -10 4 -5 0 -10
-5 -10 -11z"/>
<path d="M4030 2343 c0 -16 6 -38 14 -49 13 -17 15 -18 21 -2 8 21 -7 70 -23
76 -7 2 -12 -7 -12 -25z"/>
<path d="M3640 2303 c0 -5 5 -15 10 -23 7 -12 9 -10 7 8 -1 19 -17 33 -17 15z"/>
<path d="M3389 2290 c-8 -23 -1 -242 8 -249 4 -3 14 -18 22 -33 21 -40 24 -28
6 23 -9 24 -19 96 -23 159 -4 63 -9 108 -13 100z"/>
<path d="M3841 2280 c-1 -35 16 -92 35 -115 15 -19 15 -18 10 17 -2 20 -13 56
-24 80 -17 36 -20 39 -21 18z"/>
<path d="M3570 2250 c0 -14 26 -23 41 -15 8 6 7 10 -2 16 -19 12 -39 11 -39
-1z"/>
<path d="M3634 2177 c-9 -24 0 -31 41 -30 40 1 55 9 55 29 0 17 -8 17 -40 0
-21 -12 -26 -12 -36 3 -12 15 -13 15 -20 -2z"/>
<path d="M3777 2089 c-3 -13 -1 -19 6 -16 15 5 22 37 9 37 -5 0 -12 -9 -15
-21z"/>
<path d="M3710 2065 c-16 -19 -3 -40 16 -24 15 13 19 39 5 39 -5 0 -14 -7 -21
-15z"/>
<path d="M3940 2030 c0 -5 5 -10 10 -10 6 0 10 5 10 10 0 6 -4 10 -10 10 -5 0
-10 -4 -10 -10z"/>
<path d="M3845 1960 c-9 -15 4 -30 25 -30 24 0 36 20 19 31 -19 12 -36 11 -44
-1z"/>
<path d="M2383 1943 c9 -2 23 -2 30 0 6 3 -1 5 -18 5 -16 0 -22 -2 -12 -5z"/>
<path d="M1940 1910 c-21 -7 -19 -8 17 -9 23 -1 45 4 48 9 7 12 -29 12 -65 0z"/>
<path d="M4130 1843 c0 -18 41 -83 52 -83 5 0 6 10 3 23 -8 26 -55 77 -55 60z"/>
<path d="M3960 1750 c0 -5 5 -10 11 -10 5 0 7 5 4 10 -3 6 -8 10 -11 10 -2 0
-4 -4 -4 -10z"/>
<path d="M3941 1611 c-21 -14 -3 -31 33 -31 33 0 62 20 49 33 -9 10 -66 8 -82
-2z"/>
<path d="M3030 1491 c0 -6 13 -11 29 -11 17 0 33 -4 36 -10 8 -12 95 -13 95
-1 0 13 -23 20 -95 27 -46 5 -65 3 -65 -5z"/>
<path d="M2052 1389 c-71 -27 -84 -120 -21 -158 57 -35 123 -8 134 53 14 73
-47 130 -113 105z"/>
<path d="M3538 1303 c12 -2 30 -2 40 0 9 3 -1 5 -23 4 -22 0 -30 -2 -17 -4z"/>
<path d="M4125 931 c-3 -5 -1 -12 5 -16 5 -3 10 1 10 9 0 18 -6 21 -15 7z"/>
<path d="M4202 905 c0 -16 2 -22 5 -12 2 9 2 23 0 30 -3 6 -5 -1 -5 -18z"/>
</g>
</svg>
