<?xml version="1.0" standalone="no"?>
<!DOCTYPE svg PUBLIC "-//W3C//DTD SVG 20010904//EN"
 "http://www.w3.org/TR/2001/REC-SVG-20010904/DTD/svg10.dtd">
<svg version="1.0" xmlns="http://www.w3.org/2000/svg"
 width="747.000000pt" height="476.000000pt" viewBox="0 0 747.000000 476.000000"
 preserveAspectRatio="xMidYMid meet">
<metadata>
Created by potrace 1.16, written by Peter Selinger 2001-2019
</metadata>
<g transform="translate(0.000000,476.000000) scale(0.100000,-0.100000)"
fill="#000000" stroke="none">
<path d="M2365 4700 c-331 -34 -716 -176 -1025 -378 -535 -349 -912 -879
-1002 -1407 -28 -167 -22 -393 16 -542 103 -412 386 -832 917 -1362 490 -489
878 -716 1378 -806 333 -60 656 -59 1066 1 883 130 1460 448 1679 925 69 151
105 304 123 529 l8 94 55 -92 55 -92 63 0 62 0 0 315 0 315 -65 0 -65 0 -2
-202 -3 -201 -66 109 c-48 78 -70 126 -79 169 -64 316 -265 658 -582 991 l-98
102 0 256 0 256 -65 0 -65 0 0 -192 0 -191 -20 18 c-12 11 -68 97 -127 193
l-106 173 -67 -2 -68 -2 -208 197 c-488 465 -736 641 -1057 755 -186 65 -436
93 -652 71z m458 -70 c134 -26 221 -56 360 -126 264 -131 460 -285 909 -716
l198 -189 2 -272 3 -272 60 0 60 0 5 204 5 204 125 -206 125 -207 62 0 c58 0
63 2 63 22 0 20 4 18 41 -17 70 -68 225 -253 297 -354 124 -174 212 -345 258
-501 6 -22 5 -23 -9 -12 -10 8 -36 12 -71 10 l-57 -3 0 -310 0 -310 61 -3 60
-3 0 201 c0 110 3 200 8 200 4 0 23 -26 42 -58 l35 -57 -1 -155 c-1 -236 -44
-417 -142 -604 -220 -417 -747 -699 -1550 -831 -269 -44 -347 -50 -642 -50
-301 1 -411 13 -625 66 -275 70 -562 219 -839 436 -99 78 -122 103 -92 103 14
0 16 29 16 260 l0 260 95 0 95 0 0 50 0 50 -256 0 -255 0 3 -48 3 -47 93 -3
92 -3 0 -219 c0 -121 -2 -220 -6 -220 -20 0 -383 380 -529 555 -535 641 -670
1136 -468 1720 142 409 471 815 883 1090 308 205 683 348 1005 385 129 14 355
5 478 -20z"/>
<path d="M2220 3681 c-122 -37 -181 -129 -188 -292 -7 -152 28 -240 119 -301
144 -96 340 -23 391 146 7 23 13 86 13 142 -1 93 -3 105 -33 167 -19 39 -47
78 -67 93 -60 46 -166 66 -235 45z m160 -131 c34 -36 50 -97 50 -187 0 -91
-15 -140 -55 -180 -27 -27 -41 -33 -74 -33 -100 0 -141 62 -141 211 0 116 12
160 51 193 25 21 41 26 86 26 48 0 58 -4 83 -30z"/>
<path d="M1272 3368 l3 -313 64 -3 63 -3 -7 228 c-4 125 -5 226 -2 223 3 -3
33 -80 65 -170 33 -91 70 -191 82 -223 l22 -58 41 3 41 3 51 140 c28 77 65
178 83 225 l32 85 -3 -225 -2 -225 63 -3 62 -3 0 316 0 315 -84 0 -83 0 -62
-177 c-34 -98 -71 -200 -81 -228 l-18 -50 -12 30 c-6 17 -39 107 -72 200 -33
94 -65 182 -70 198 -10 27 -11 27 -94 27 l-84 0 2 -312z"/>
<path d="M2660 3364 l0 -317 128 5 c153 6 211 26 272 95 56 64 73 124 68 241
-3 84 -8 104 -33 151 -58 105 -137 141 -315 141 l-120 0 0 -316z m279 189 c46
-34 65 -88 65 -183 1 -143 -42 -203 -158 -216 l-56 -7 0 218 0 218 62 -6 c37
-3 71 -13 87 -24z"/>
<path d="M3232 3368 l3 -313 208 -3 207 -2 0 50 0 49 -142 3 -143 3 -3 88 -3
87 126 0 126 0 -3 48 -3 47 -122 3 -123 3 0 74 0 75 145 0 145 0 0 50 0 50
-210 0 -210 0 2 -312z"/>
<path d="M3730 3365 l0 -316 63 3 62 3 3 113 3 113 51 -3 51 -3 59 -112 60
-113 64 0 c35 0 64 3 64 7 0 3 -30 63 -66 132 -61 116 -65 126 -48 136 66 37
101 113 90 194 -9 62 -39 106 -94 133 -42 21 -64 23 -204 26 l-158 4 0 -317z
m304 186 c36 -34 37 -101 1 -136 -21 -22 -33 -25 -100 -25 l-75 0 0 96 0 96
74 -4 c62 -3 79 -7 100 -27z"/>
<path d="M1275 2950 c-2 -4 103 -488 130 -597 5 -21 11 -23 69 -23 l64 0 48
198 c25 108 50 200 53 205 4 4 15 -26 24 -65 9 -40 31 -133 49 -206 l32 -133
64 3 65 3 67 305 c37 168 67 307 65 310 -2 3 -29 5 -62 4 l-58 0 -40 -212
c-22 -116 -43 -213 -46 -216 -2 -3 -27 92 -54 211 l-50 217 -52 1 c-40 1 -54
-2 -57 -14 -3 -9 -25 -106 -51 -216 -25 -110 -48 -201 -50 -203 -6 -6 -13 26
-50 228 -20 107 -39 197 -42 200 -6 6 -114 6 -118 0z"/>
<path d="M2095 2951 c-3 -2 -5 -143 -5 -313 l0 -308 65 0 65 0 -2 312 -3 311
-58 2 c-31 1 -60 -1 -62 -4z"/>
<path d="M2303 2944 c-2 -7 -3 -29 -1 -50 l3 -39 93 -3 92 -3 0 -259 0 -260
65 0 65 0 0 260 0 260 95 0 95 0 0 53 0 52 -251 0 c-180 0 -253 -3 -256 -11z"/>
<path d="M2894 2951 c-2 -2 -4 -143 -4 -313 l0 -308 60 0 59 0 3 133 3 132
125 0 125 0 3 -132 3 -133 64 0 65 0 -2 312 -3 312 -62 1 -63 1 0 -128 0 -129
-127 3 -128 3 -5 125 -5 124 -53 1 c-30 0 -56 -2 -58 -4z"/>
<path d="M4827 2200 c-58 -15 -92 -36 -131 -81 -50 -59 -70 -125 -70 -234 0
-108 20 -175 69 -233 99 -115 286 -117 385 -5 51 59 70 122 70 238 0 116 -19
179 -70 237 -59 68 -163 100 -253 78z m142 -125 c41 -35 55 -84 54 -196 0
-107 -17 -157 -65 -192 -35 -26 -101 -26 -136 0 -51 37 -67 86 -67 203 0 115
12 150 61 189 39 31 113 29 153 -4z"/>
<path d="M1260 2150 l0 -50 95 0 95 0 0 -265 0 -265 65 0 65 0 2 263 3 262 93
3 92 3 0 49 0 50 -255 0 -255 0 0 -50z"/>
<path d="M1850 1886 l0 -317 63 3 62 3 3 113 3 113 52 -3 52 -3 58 -112 58
-113 64 0 c36 0 65 3 65 8 0 4 -29 61 -64 127 l-63 120 40 34 c49 43 67 84 67
152 0 73 -35 130 -97 160 -42 21 -66 24 -205 27 l-158 4 0 -316z m285 200 c27
-11 36 -23 45 -54 22 -82 -18 -123 -125 -130 l-75 -5 0 102 0 101 60 0 c33 0
76 -6 95 -14z"/>
<path d="M2480 1898 c-62 -167 -115 -309 -118 -316 -3 -10 11 -12 64 -10 l68
3 20 63 20 62 117 0 117 0 12 -37 c29 -96 26 -93 96 -93 35 0 64 2 64 5 0 4
-199 541 -225 608 -6 13 -19 17 -64 17 l-57 0 -114 -302z m210 35 c18 -54 35
-104 38 -110 3 -10 -16 -13 -76 -13 l-80 0 36 110 c20 61 39 110 43 110 3 0
21 -44 39 -97z"/>
<path d="M3010 1885 l0 -318 133 5 c112 4 141 8 180 27 92 44 143 118 155 224
20 171 -36 296 -158 351 -36 16 -72 21 -177 24 l-133 4 0 -317z m242 203 c22
-6 50 -24 63 -40 49 -59 57 -215 15 -299 -26 -50 -89 -82 -153 -77 l-42 3 -3
200 c-1 110 0 205 2 212 7 16 66 17 118 1z"/>
<path d="M3590 1885 l0 -315 65 0 65 0 0 315 0 315 -65 0 -65 0 0 -315z"/>
<path d="M3800 2150 l0 -49 93 -3 92 -3 3 -263 2 -263 63 3 62 3 3 263 2 262
95 0 95 0 0 50 0 50 -255 0 -255 0 0 -50z"/>
<path d="M4395 2187 c-3 -7 -4 -147 -3 -312 l3 -300 63 -3 62 -3 0 316 0 315
-60 0 c-40 0 -62 -4 -65 -13z"/>
<path d="M2540 1441 c-167 -51 -197 -223 -54 -307 25 -15 79 -39 122 -55 116
-43 149 -93 96 -146 -23 -23 -31 -25 -89 -21 -72 4 -100 22 -110 69 -6 28 -8
29 -71 29 l-64 0 6 -27 c27 -116 113 -173 258 -173 135 0 216 64 216 169 0
105 -46 148 -232 215 -96 35 -123 82 -73 131 19 20 34 25 75 25 44 0 56 -5 81
-29 16 -16 29 -37 29 -45 0 -13 12 -16 60 -16 58 0 60 1 60 25 0 58 -69 135
-137 154 -43 12 -136 13 -173 2z"/>
<path d="M1986 1431 c-7 -10 -226 -599 -226 -606 0 -3 29 -5 64 -5 l64 0 22
65 22 66 116 -3 116 -3 20 -62 20 -63 68 0 68 0 -19 48 c-10 26 -62 165 -116
310 l-97 262 -59 0 c-32 0 -60 -4 -63 -9z m103 -261 c17 -52 31 -101 31 -108
0 -8 -22 -12 -75 -12 -41 0 -75 3 -75 7 0 24 74 223 80 216 4 -4 22 -51 39
-103z"/>
<path d="M2902 1393 l3 -48 95 -5 95 -5 0 -258 0 -257 63 0 62 0 0 260 0 259
98 3 97 3 2 48 2 47 -260 0 -260 0 3 -47z"/>
<path d="M3490 1130 l0 -310 211 0 210 0 -3 48 -3 47 -142 3 -143 3 0 84 0 85
126 0 125 0 -3 48 -3 47 -122 3 -123 3 0 74 0 75 145 0 145 0 0 50 0 50 -210
0 -210 0 0 -310z"/>
<path d="M5316 3671 c-10 -16 -226 -600 -226 -611 0 -7 23 -10 62 -8 l63 3 20
55 c30 84 24 80 144 80 l109 0 23 -67 24 -68 63 0 c34 0 62 4 62 10 0 6 -50
146 -112 312 l-113 303 -57 0 c-31 0 -59 -4 -62 -9z m99 -259 c19 -55 35 -106
35 -112 0 -6 -30 -10 -75 -10 -41 0 -75 3 -75 7 0 15 72 224 76 221 2 -2 19
-50 39 -106z"/>
<path d="M5732 3369 l3 -314 60 0 60 0 3 113 3 112 52 0 52 0 58 -115 58 -115
65 0 c35 0 64 4 64 10 0 5 -29 65 -64 132 l-64 121 37 27 c53 39 74 88 69 164
-4 74 -30 116 -91 148 -37 20 -61 23 -205 26 l-162 4 2 -313z m278 202 c33 -9
63 -66 55 -106 -3 -16 -16 -40 -31 -52 -21 -20 -37 -23 -100 -23 l-74 0 0 95
0 95 63 -1 c34 -1 73 -4 87 -8z"/>
<path d="M6230 3630 l0 -50 95 0 95 0 2 -262 3 -263 60 0 60 0 3 263 2 262 95
0 95 0 0 50 0 50 -255 0 -255 0 0 -50z"/>
<path d="M6049 2173 c-6 -15 -26 -68 -44 -118 -18 -49 -65 -176 -104 -280 -39
-105 -71 -194 -71 -198 0 -4 29 -7 64 -7 l64 0 22 65 22 66 115 -3 116 -3 21
-60 21 -60 68 -3 c37 -2 67 -2 67 0 0 2 -53 143 -118 313 l-117 310 -58 3
c-55 3 -58 2 -68 -25z m112 -259 l36 -104 -80 0 c-59 0 -78 3 -75 13 3 6 20
56 38 110 17 54 35 95 38 92 4 -4 23 -53 43 -111z"/>
<path d="M6472 1888 l3 -313 198 -3 197 -2 0 50 0 50 -135 0 -135 0 0 265 0
265 -65 0 -65 0 2 -312z"/>
</g>
</svg>
