<?xml version="1.0" standalone="no"?>
<!DOCTYPE svg PUBLIC "-//W3C//DTD SVG 20010904//EN"
 "http://www.w3.org/TR/2001/REC-SVG-20010904/DTD/svg10.dtd">
<svg version="1.0" xmlns="http://www.w3.org/2000/svg"
 width="1895.000000pt" height="1325.000000pt" viewBox="0 0 1895.000000 1325.000000"
 preserveAspectRatio="xMidYMid meet">
<metadata>
Created by potrace 1.16, written by Peter Selinger 2001-2019
</metadata>
<g transform="translate(0.000000,1325.000000) scale(0.100000,-0.100000)"
fill="#000000" stroke="none">
<path d="M6570 12924 c-1883 -162 -3303 -633 -4365 -1448 -189 -145 -319 -260
-501 -441 -968 -970 -1476 -2298 -1513 -3960 l-7 -310 48 -157 c348 -1154
1058 -2400 1952 -3428 263 -302 658 -702 908 -920 l38 -32 0 -224 0 -224 190
0 189 0 3 65 3 65 60 -48 c98 -78 340 -252 485 -349 875 -583 1776 -964 2715
-1147 400 -78 681 -106 1125 -113 328 -5 362 -3 695 26 1528 136 2517 311
3388 601 805 268 1413 617 1872 1075 596 594 899 1324 944 2275 6 111 12 204
14 207 3 2 69 -102 148 -232 l143 -235 193 0 193 0 0 905 0 905 -190 0 -190 0
0 -592 0 -592 -174 285 c-170 280 -174 287 -181 355 -82 840 -283 1418 -692
1993 -186 260 -364 464 -814 931 -162 168 -318 330 -347 361 l-52 56 -2 799
-3 799 -187 3 -188 2 0 -587 c0 -523 -2 -585 -15 -567 -8 10 -171 274 -361
587 l-347 567 -152 0 -153 0 -183 191 c-306 319 -737 723 -1040 975 -576 478
-1070 805 -1634 1080 -571 279 -1093 435 -1669 499 -149 17 -138 17 -346 -1z
m298 -204 c332 -35 647 -105 977 -215 260 -87 427 -158 715 -301 815 -408
1591 -1006 2488 -1919 l322 -328 0 -794 0 -793 190 0 190 0 0 576 c0 340 4
573 9 570 5 -3 165 -262 357 -576 l347 -570 148 0 147 0 59 -63 c32 -35 180
-190 330 -345 395 -410 567 -607 741 -850 284 -395 470 -823 571 -1308 47
-228 48 -220 -14 -116 l-56 92 -190 0 -189 0 0 -905 0 -905 190 0 190 0 2 582
3 581 94 -154 93 -154 9 -190 c36 -807 -137 -1515 -510 -2080 -238 -361 -616
-713 -1041 -970 -873 -528 -2095 -854 -3910 -1045 -911 -95 -1295 -103 -1853
-39 -850 97 -1717 384 -2536 841 -175 97 -296 171 -510 312 l-185 121 164 5
164 5 60 182 61 183 320 0 320 0 61 -182 60 -183 202 -3 c111 -1 202 1 202 5
0 5 -151 412 -336 906 l-336 897 -177 -2 -176 -3 -325 -872 c-179 -480 -328
-875 -332 -878 -7 -8 -178 115 -350 253 l-118 94 0 549 0 549 275 0 275 0 0
155 0 155 -740 0 -740 0 0 -155 0 -155 275 0 275 0 0 -386 0 -386 -142 133
c-170 161 -442 444 -604 629 -866 986 -1520 2103 -1905 3253 l-81 242 5 320
c28 1564 506 2832 1422 3774 1053 1083 2682 1701 4928 1870 10 0 61 -4 115 -9z
m-1842 -10242 c5 -17 -9 -18 -210 -18 -119 0 -216 3 -216 7 0 5 48 152 107
328 l106 320 104 -310 c57 -171 106 -318 109 -327z"/>
<path d="M5440 10180 c-273 -73 -471 -283 -540 -573 -39 -163 -47 -410 -19
-582 24 -145 91 -307 166 -403 48 -60 144 -144 208 -182 210 -123 526 -129
748 -13 95 50 229 182 282 277 85 153 125 336 125 568 -1 329 -78 549 -254
723 -88 87 -171 137 -291 175 -103 33 -320 38 -425 10z m358 -331 c105 -51
172 -157 207 -324 21 -98 20 -410 -1 -513 -51 -255 -203 -379 -428 -350 -146
20 -246 125 -298 316 -19 67 -22 105 -22 292 0 178 3 227 18 285 24 89 66 174
113 226 97 108 270 136 411 68z"/>
<path d="M2697 10173 c-4 -3 -7 -411 -7 -905 l0 -898 195 0 195 0 0 218 c0
119 -9 410 -20 647 -10 236 -18 430 -17 431 1 2 108 -290 237 -647 l235 -650
134 3 134 3 236 652 c130 358 236 650 237 650 1 -1 -7 -175 -17 -387 -10 -212
-18 -505 -18 -652 l-1 -268 190 0 190 0 0 905 0 905 -247 0 -248 0 -225 -641
c-123 -352 -227 -642 -230 -644 -3 -2 -83 218 -179 488 -96 271 -199 561 -229
645 l-54 152 -243 0 c-133 0 -245 -3 -248 -7z"/>
<path d="M6670 9274 l0 -905 368 3 c311 3 376 7 426 21 338 99 534 335 587
706 17 120 6 352 -21 461 -57 226 -203 420 -392 520 -156 83 -267 100 -665
100 l-303 0 0 -906z m660 586 c172 -33 288 -159 325 -356 20 -102 20 -375 0
-469 -31 -146 -120 -271 -228 -320 -66 -30 -156 -45 -279 -45 l-98 0 0 600 0
600 114 0 c62 0 137 -5 166 -10z"/>
<path d="M8320 9275 l0 -905 610 0 610 0 0 150 0 150 -420 0 -420 0 0 240 0
240 360 0 361 0 -3 148 -3 147 -357 3 -358 2 0 210 0 210 420 0 420 0 0 155 0
155 -610 0 -610 0 0 -905z"/>
<path d="M9750 9275 l0 -905 190 0 190 0 0 330 0 330 143 0 143 0 169 -330
169 -330 203 0 c156 0 203 3 203 13 0 6 -86 174 -190 371 -105 197 -190 362
-190 365 0 3 25 19 56 35 115 60 204 176 239 311 19 73 21 241 4 310 -40 163
-159 291 -327 352 -121 44 -225 53 -629 53 l-373 0 0 -905z m815 571 c91 -39
145 -127 145 -236 0 -118 -36 -188 -123 -236 -52 -29 -53 -29 -254 -32 l-203
-3 0 266 0 267 198 -4 c159 -3 205 -7 237 -22z"/>
<path d="M2580 7968 c1 -7 90 -413 198 -903 l198 -890 193 0 194 0 141 577
c78 317 143 579 146 582 3 2 65 -243 139 -546 73 -302 137 -565 143 -584 l9
-34 192 2 191 3 198 885 c108 487 197 893 197 903 1 16 -14 17 -187 17 l-188
0 -119 -633 -120 -634 -146 631 -145 631 -161 3 c-147 2 -162 1 -167 -15 -2
-10 -66 -283 -141 -608 -74 -324 -139 -598 -143 -608 -5 -12 -53 219 -127 607
l-119 626 -188 0 c-144 0 -188 -3 -188 -12z"/>
<path d="M4940 7075 l0 -905 190 0 190 0 0 905 0 905 -190 0 -190 0 0 -905z"/>
<path d="M5510 7825 l0 -155 270 0 270 0 0 -750 0 -750 190 0 190 0 0 750 0
750 280 0 280 0 0 155 0 155 -740 0 -740 0 0 -155z"/>
<path d="M7190 7075 l0 -905 190 0 190 0 0 385 0 385 360 0 360 0 0 -385 0
-385 190 0 190 0 0 905 0 905 -190 0 -190 0 0 -365 0 -365 -360 0 -360 0 0
365 0 365 -190 0 -190 0 0 -905z"/>
<path d="M12800 5786 c-148 -36 -244 -89 -351 -196 -75 -75 -93 -100 -137
-191 -63 -129 -89 -230 -103 -401 -27 -320 38 -595 185 -786 47 -61 162 -155
231 -190 217 -106 484 -107 705 0 70 34 100 57 175 132 73 73 98 108 132 176
74 152 101 268 110 470 10 246 -20 418 -107 595 -93 193 -250 324 -455 381
-80 22 -310 28 -385 10z m326 -330 c112 -51 189 -171 219 -341 22 -122 17
-447 -9 -540 -28 -101 -72 -179 -131 -233 -68 -63 -127 -83 -235 -83 -181 0
-296 107 -357 331 -25 93 -26 464 0 563 46 184 147 297 291 327 62 13 164 2
222 -24z"/>
<path d="M2580 5625 l0 -155 275 0 275 0 0 -750 0 -750 190 0 190 0 0 750 0
750 275 0 275 0 0 155 0 155 -740 0 -740 0 0 -155z"/>
<path d="M4270 4876 l0 -906 190 0 190 0 0 330 0 330 143 0 142 -1 166 -327
167 -327 206 -3 c125 -1 206 1 206 7 0 5 -85 171 -190 368 -104 198 -190 364
-190 369 0 5 21 20 47 34 61 32 157 122 188 175 45 75 66 154 72 262 14 247
-79 418 -279 513 -144 69 -171 72 -640 77 l-418 5 0 -906z m775 579 c74 -19
122 -57 155 -121 21 -41 25 -62 25 -134 0 -99 -20 -148 -82 -199 -61 -51 -114
-61 -315 -61 l-178 0 0 265 0 265 168 0 c119 0 185 -5 227 -15z"/>
<path d="M6092 4937 c-173 -463 -324 -870 -337 -904 l-24 -63 204 0 203 0 62
185 62 185 322 0 321 0 61 -182 60 -183 202 -3 c111 -1 202 0 202 4 0 3 -152
410 -337 905 l-336 899 -176 0 -176 0 -313 -843z m702 -264 l7 -23 -215 0
c-119 0 -216 3 -216 8 0 7 192 586 206 622 4 11 157 -414 218 -607z"/>
<path d="M7590 4876 l0 -906 339 0 c258 0 356 3 408 14 334 71 553 297 625
646 27 131 22 415 -10 533 -83 306 -281 508 -577 588 -73 20 -109 23 -432 27
l-353 4 0 -906z m661 584 c167 -31 269 -136 321 -328 30 -113 30 -403 0 -515
-68 -252 -206 -347 -504 -347 l-98 0 0 600 0 600 114 0 c62 0 138 -5 167 -10z"/>
<path d="M9270 4875 l0 -905 190 0 190 0 0 905 0 905 -190 0 -190 0 0 -905z"/>
<path d="M9840 5625 l0 -155 270 0 270 0 0 -750 0 -750 190 0 190 0 0 750 0
750 275 0 275 0 0 155 0 155 -735 0 -735 0 0 -155z"/>
<path d="M11540 4875 l0 -905 190 0 190 0 0 905 0 905 -190 0 -190 0 0 -905z"/>
<path d="M6280 3594 c-149 -31 -251 -82 -338 -166 -98 -95 -136 -194 -130
-343 3 -87 8 -109 35 -168 58 -123 187 -233 360 -306 40 -17 134 -53 210 -80
171 -60 251 -100 290 -144 86 -98 61 -242 -51 -296 -90 -44 -265 -47 -363 -6
-90 38 -143 111 -158 218 l-7 47 -189 0 -189 0 0 -37 c0 -21 7 -66 15 -101 69
-294 390 -482 785 -459 309 18 518 153 576 371 18 65 18 196 0 261 -56 209
-220 340 -572 456 -212 69 -306 119 -345 182 -26 43 -25 118 2 166 45 80 166
129 292 117 149 -14 236 -86 254 -211 l6 -45 188 0 189 0 0 38 c0 109 -59 240
-151 334 -54 55 -85 77 -160 112 -52 25 -129 52 -171 60 -95 20 -288 20 -378
0z"/>
<path d="M7270 3435 l0 -155 275 0 275 0 0 -750 0 -750 190 0 190 0 0 750 0
750 275 0 275 0 0 155 0 155 -740 0 -740 0 0 -155z"/>
<path d="M8960 2685 l0 -905 605 0 605 0 0 150 0 150 -415 0 -415 0 0 240 0
240 355 0 355 0 0 150 0 150 -355 0 -355 0 0 210 0 210 415 0 415 0 0 155 0
155 -605 0 -605 0 0 -905z"/>
<path d="M14000 9338 c-172 -464 -324 -871 -337 -905 l-23 -63 203 0 202 0 61
183 60 182 324 0 324 0 60 -182 61 -183 203 0 c159 0 203 3 199 13 -2 6 -154
414 -338 904 l-334 893 -176 0 -175 0 -314 -842z m602 32 l106 -320 -218 0
-218 0 106 320 c59 176 109 320 112 320 3 0 53 -144 112 -320z"/>
<path d="M15500 9276 l0 -906 190 0 190 0 0 330 0 330 144 0 145 0 168 -330
168 -330 208 0 c114 0 207 2 207 5 0 3 -88 172 -196 376 -108 204 -195 371
-193 373 2 2 29 16 59 32 30 16 80 54 111 84 100 98 142 214 143 390 1 273
-137 445 -419 522 -75 20 -107 22 -502 26 l-423 4 0 -906z m820 568 c96 -44
142 -122 143 -240 1 -125 -57 -211 -166 -248 -37 -12 -89 -16 -232 -16 l-185
0 0 266 0 266 198 -4 c173 -3 202 -6 242 -24z"/>
<path d="M16950 10025 l0 -155 270 0 270 0 0 -750 0 -750 190 0 190 0 0 750 0
750 280 0 280 0 0 155 0 155 -740 0 -740 0 0 -155z"/>
<path d="M16021 4908 c-179 -480 -331 -888 -338 -905 l-13 -33 204 0 204 0 62
185 62 185 321 -2 322 -3 61 -180 61 -180 203 -3 c160 -2 201 0 198 10 -3 7
-155 415 -338 906 l-334 892 -176 0 -175 0 -324 -872z m506 -256 c-116 -1
-212 0 -215 2 -4 4 193 608 206 631 3 5 54 -135 112 -310 l107 -320 -210 -3z"/>
<path d="M17530 4875 l0 -905 585 0 585 0 0 150 0 150 -395 0 -395 0 0 755 0
755 -190 0 -190 0 0 -905z"/>
</g>
</svg>
